<svg id="Layer_1" enable-background="new 0 0 100 100" height="512" viewBox="0 0 100 100" width="512" xmlns="http://www.w3.org/2000/svg"><g><path d="m95.06 87.18h-11.35c8-4.86 13.35-13.65 13.35-23.67 0-14.58-11.34-26.55-25.66-27.58v-15.38h5.1c3.66 0 6.64-2.98 6.64-6.64v-3.09c0-1.1-.9-2-2-2s-2 .9-2 2v3.09c0 1.45-1.18 2.64-2.64 2.64h-7.1-8.62c-1.1 0-2 .9-2 2s.9 2 2 2h6.62v4.75c-14.17 5.16-26.99 13.77-37.18 24.99h-12.33l-6.96-29.77h5.39v1.25c0 1.1.9 2 2 2s2-.9 2-2v-3.25c0-1.1-.9-2-2-2h-13.38c-1.1 0-2 .9-2 2s.9 2 2 2h1.88l7.01 30.01c-6.12 1.16-10.76 6.54-10.76 12.99 0 6.32 4.45 11.61 10.38 12.91-1.49 3.5-2.77 7.1-3.82 10.75h-4.56c-1.1 0-2 .9-2 2s.9 2 2 2h89.99c1.1 0 2-.9 2-2s-.9-2-2-2zm-8.99-23.67c0 9.2-7.48 16.68-16.68 16.68s-16.68-7.48-16.68-16.68 7.48-16.68 16.68-16.68c9.2.01 16.68 7.49 16.68 16.68zm-18.68-33.96v6.37c-9.62.69-17.89 6.32-22.29 14.36h-9.38c8.97-9.08 19.8-16.18 31.67-20.73zm-57.73 33.97c0-3.66 2.98-6.64 6.64-6.64 2.96 0 5.48 1.95 6.33 4.64h3.37c1.1 0 2 .9 2 2s-.9 2-2 2h-3.37c-.85 2.69-3.37 4.64-6.33 4.64-3.66 0-6.64-2.98-6.64-6.64zm4.15 23.66c1.07-3.55 2.37-7.05 3.87-10.44h27.42c2.35 4.29 5.8 7.9 9.98 10.44z"/><path d="m56.71 63.51c0 6.99 5.69 12.68 12.68 12.68s12.68-5.69 12.68-12.68-5.69-12.68-12.68-12.68c-6.99.01-12.68 5.69-12.68 12.68z"/><path d="m18.94 63.52c0-1.46-1.18-2.64-2.64-2.64-1.45 0-2.64 1.18-2.64 2.64s1.18 2.64 2.64 2.64c1.45 0 2.64-1.19 2.64-2.64z"/></g></svg>