<svg id="ball" enable-background="new 0 0 512 512" height="512" viewBox="0 0 512 512" width="512" xmlns="http://www.w3.org/2000/svg"><path id="_x31_" d="m80.406 154.965c32.98-57.309 93.164-96.941 162.945-101.25-20.215 32.188-47.906 92.742-50.18 185.355-15.098 2.84-28.52 10.402-38.719 21.102-18.026-13.492-57.116-48.269-74.046-105.207zm54.094 154.82c0-9.5 1.895-18.555 5.25-26.863-17.547-12.805-53.047-43.348-75.215-93.07-7.117 20.68-11.035 42.84-11.035 65.934 0 30.578 6.816 59.551 18.953 85.543 30.414-1.961 52.516-10.309 63.867-15.68-1.156-5.11-1.82-10.407-1.82-15.864zm142.469-14.738c.996 4.758 1.531 9.684 1.531 14.738 0 9.027-1.742 17.637-4.789 25.602 24.926 12.168 89.992 38.324 158.395 20.316 16.77-29.488 26.395-63.57 26.395-99.918 0-24.238-4.273-47.465-12.078-69.004-25.583 27.68-75.591 68.645-169.454 108.266zm-10.422-24.902c101.855-43.016 148.43-87.035 167.688-110.547-31.27-57.809-89.836-98.676-158.422-105.336-16.332 21.871-52.93 82.051-55.645 184.863 19.309 3.727 35.887 15.18 46.379 31.02zm-119.406 80.301c-12.203 5.738-32.758 13.41-60.238 16.715 29.434 44.598 76.02 76.855 130.383 87.387-13.488-26.508-17.813-56.531-19.16-73.293-21.13-2.462-39.493-14.083-50.985-30.809zm59.359-85.661c-24.813 0-45 20.184-45 45 0 24.813 20.188 45 45 45s45-20.188 45-45c0-24.816-20.187-45-45-45zm52.867 93.715c-9.117 9.875-20.93 17.184-34.277 20.762 1.504 18.309 6.977 55.328 26.414 78.91 1.5.031 2.988.113 4.496.113 61.551 0 116.645-27.496 153.781-70.836-9.148 1.105-18.16 1.664-26.934 1.664-56.316.001-103.355-20.359-123.48-30.613z" fill="rgb(0,0,0)"/></svg>