<svg id="Glyph" height="512" viewBox="0 0 64 64" width="512" xmlns="http://www.w3.org/2000/svg"><path d="m43.92 44.67c5.44318-10.356.77691-24.04415-10.0002-28.7399-20.5396-9.09382-39.20743 15.29769-24.97964 32.74002 9.48255 11.55088 28.32111 9.38467 34.97984-4.00012zm-2.99-8.18a15.89039 15.89039 0 1 1 -14.4399-17.21988 15.98227 15.98227 0 0 1 14.4399 17.21988z"/><path d="m26.63 21.3a13.93555 13.93555 0 0 0 -15.35987 12.59011c-1.14334 14.093 16.9424 20.69912 25.16992 9.22971 6.13734-8.28453.51032-20.84067-9.81005-21.81982zm4.66 14.35c-.98348 8.17243-12.86357 7.0948-12.37-1.09016.94323-8.16142 12.85981-7.1031 12.37 1.09016z"/><path d="m25.47 30.91c-5.53871-.357-6.25619 7.77139-.72985 8.39a4.211 4.211 0 0 0 .72985-8.39z"/><path d="m55.06 15.33c-6.82763-8.50623-20.30409-10.01471-28.83-3.29975a23.17483 23.17483 0 0 1 7.77 1.74975 15.6154 15.6154 0 0 1 6.28-.71c12.43789.91082 18.93429 16.07051 11.07967 25.68009a15.70908 15.70908 0 0 1 -4.38967 3.81991 22.81268 22.81268 0 0 1 -3.38 6.39c-.16005.20995-.31.41-.48.61a20.93336 20.93336 0 0 0 10.32-5.37c7.93124-7.18464 8.82051-20.698 1.63-28.87z"/><path d="m47.94 38.51a7.37957 7.37957 0 0 1 -.18 1.07 13.76317 13.76317 0 0 0 4.97-9.47 13.95716 13.95716 0 0 0 -15.95009-14.94993 23.00535 23.00535 0 0 1 11.16009 23.34993z"/></svg>