<svg id="Glyph" height="512" viewBox="0 0 64 64" width="512" xmlns="http://www.w3.org/2000/svg"><g fill="rgb(0,0,0)"><path d="m45.42279 3.99835a4.7639 4.7639 0 0 0 -4.75679 4.75684v1.58557h14.58748a4.764 4.764 0 0 0 4.75683-4.75676v-1.58565z"/><path d="m33.76331 16.15466v1.24734h14.34442a4.764 4.764 0 0 0 4.75677-4.7568v-1.24737h-14.34442a4.764 4.764 0 0 0 -4.75677 4.75683z"/><path d="m26.57526 23.21582v2.0824h14.27038a4.764 4.764 0 0 0 4.75684-4.75678v-2.08239h-14.27039a4.764 4.764 0 0 0 -4.75683 4.75677z"/><path d="m22.94 26.36a4.76287 4.76287 0 0 0 -4.76 4.75v3.23l-.52.56c-3.93.32-6.77 3.25-7.77 4.51a2.67564 2.67564 0 0 1 -1.44.91l-4.12 1.05a.38258.38258 0 0 0 -.27.39l.11 1.02a.37862.37862 0 0 0 .42.32s1.8-.27 1.81-.28a.54409.54409 0 0 1 .55.79l-1.35 2.36a.42634.42634 0 0 0 -.02.33 6.53425 6.53425 0 0 0 4.41 3.16 10.50061 10.50061 0 0 0 1.85.3.36847.36847 0 0 0 .37994-.28c.52-1.81.74005-5 2.56006-6.08.3-.22 2.7-1.97 2.93994-2.13995.08-.06 8.27-.1 8.27-.1a6.37176 6.37176 0 0 0 6.37-6.36v-1.53005h-6.44994a3.4458 3.4458 0 0 1 -.43 1.91l-.4.7a.52672.52672 0 0 1 -.91-.53 3.52369 3.52369 0 0 0 .68-1.8c.02-.44-.17-1.34.53-1.34h8.01c3.24-.05 5.09-2.78 4.76-5.85z"/><path d="m24.38715 45.82648v-3.60462c-.01069.01056-6.20392-.0202-6.205.01056-.05414 1.32416.24872 3.71845-.51795 4.88373l-1.91326 3.4566a.9683.9683 0 0 0 .26428 1.24738c2.31958 1.62292 6.19757 3.56323 10.20068.04224a.98058.98058 0 0 0 .20081-1.18384c-.56942-1.21027-2.13766-3.45825-2.02956-4.85205z"/><path d="m15.39148 52.66571a2.03286 2.03286 0 0 1 -.57074-2.6109c.45691-1.00421 2.43829-3.81189 2.30432-4.95764v-2.10364l-1.723 1.24731a3.3307 3.3307 0 0 0 -1.30017 1.94507l-.8562 3.54114a1.40969 1.40969 0 0 1 -1.37421 1.09937 13.39858 13.39858 0 0 1 -1.95557-.296l-4.15425 3.7103c-.64789.593-.13172 1.283.27478 1.82874a.9484.9484 0 0 0 1.24731.27484l1.89215-1.14154a.53772.53772 0 0 1 .80341.46509l-.04231 3.02315a.92371.92371 0 0 0 .63422.88788c1.15222.37 3.298.814 4.82025-.22193a.91592.91592 0 0 0 .38055-.8034l-.27484-5.81384a.91618.91618 0 0 1 -.1057-.074z"/></g></svg>