<svg id="Layer_1" enable-background="new 0 0 512 512" height="512" viewBox="0 0 512 512" width="512" xmlns="http://www.w3.org/2000/svg"><path clip-rule="evenodd" d="m305.353 476.567c0 12.389-10.044 22.433-22.433 22.433s-22.433-10.044-22.433-22.433v-153.097c0-2.292-1.87-4.161-4.161-4.161h-.652c-2.291 0-4.161 1.869-4.161 4.161v153.097c0 12.389-10.044 22.433-22.433 22.433-12.39 0-22.433-10.044-22.433-22.433 0-98.782 0-205.018 0-304.282-.001-2.292-1.87-4.16-4.161-4.16h-.652c-2.292 0-4.161 1.869-4.161 4.161v117.143c0 9.704-7.867 17.571-17.57 17.571-9.704 0-17.571-7.867-17.571-17.571 0-45.684 0-81.367 0-127.051 0-27.539 22.461-50 50-50h86.937c27.539 0 50 22.461 50 50v127.051c0 9.704-7.867 17.571-17.571 17.571s-17.571-7.867-17.571-17.571c0-42.381 0-74.762 0-117.143 0-2.292-1.869-4.161-4.161-4.161h-.653c-2.291 0-4.16 1.869-4.161 4.16.001 99.263.001 205.499.001 304.282zm-49.353-463.567c23.788 0 43.072 19.284 43.072 43.072s-19.284 43.072-43.072 43.072-43.072-19.284-43.072-43.072 19.284-43.072 43.072-43.072z" fill-rule="evenodd"/></svg>