<svg id="Icons" height="512" viewBox="0 0 60 60" width="512" xmlns="http://www.w3.org/2000/svg"><path d="m6 47v10a1 1 0 0 0 2 0v-10a1 1 0 0 0 -2 0z"/><path d="m37 9a7 7 0 1 0 -11 5.726v-2.726c0-.013 0-.026 0-.039a4.955 4.955 0 0 1 -1-2.961 5 5 0 0 1 10 0 4.955 4.955 0 0 1 -1 2.961v.039 2.726a6.962 6.962 0 0 0 3-5.726z"/><path d="m58 44.176a19.127 19.127 0 0 0 -9.042-16.182l-16.482-10.142a1 1 0 0 1 -.476-.852v-5a1 1 0 0 0 -1-1h-2a1 1 0 0 0 -1 1v5a1 1 0 0 1 -.476.852l-16.482 10.142a19.127 19.127 0 0 0 -9.042 16.182v5.824a3 3 0 0 0 2 2.816v-8.64a17.114 17.114 0 0 1 8.09-14.476l17.391-10.554a1 1 0 0 1 1.038 0l17.381 10.548a17.115 17.115 0 0 1 8.1 14.482v8.64a3 3 0 0 0 2-2.816z"/><path d="m10 48h40v8h-40z"/><path d="m52 57a1 1 0 0 0 2 0v-10a1 1 0 0 0 -2 0z"/></svg>