<svg id="Layer_1" enable-background="new 0 0 500 500" viewBox="0 0 500 500" xmlns="http://www.w3.org/2000/svg"><path clip-rule="evenodd" d="m116.741 228.976c15.501 0 29.966 4.438 42.194 12.111.4.251.924.145 1.196-.24l23.86-33.888c.201-.285.219-.637.049-.941l-31.594-56.74c-.165-.296-.461-.464-.8-.455-20.763.594-41.438-6.745-42.141-24.415-.019-.478.346-.885.823-.919 55.019-3.961 82.528-5.942 82.528-5.942 6.034 14.398-6.919 24.645-24.291 28.99-.567.142-.844.775-.562 1.287l15.257 27.743c.171.311.487.482.841.457l126.084-9.128c.408-.03.734-.321.808-.724l1.036-5.695 1.338-44.039c.013-.415.3-.757.706-.841 19.327-3.998 43.508-5.992 62.13 1.571 34.76 14.116 25.519 52.542-19.944 59.414-1.142.173-1.255-1.625-1.583-3.203-.881-4.236 1.784-8.411 5.997-9.395 4.659-1.087 9.162-2.692 12.836-5.557 4.557-3.553 8.249-8.563 7.51-14.636-1.056-8.681-10.272-13.875-17.829-16.143-.038-.012-.072-.019-.111-.026-7.279-1.187-28.15-.656-35.641 1.431-.375.105-.63.425-.647.815l-1.51 34.973c4.547 22.819 10.593 47.755 18.342 69.904.182.521.782.75 1.265.483 11.375-6.283 24.454-9.86 38.369-9.86 43.901 0 79.49 35.589 79.49 79.49s-35.589 79.49-79.49 79.49-79.49-35.588-79.49-79.49c0-23.211 9.951-44.097 25.816-58.629.277-.254.364-.632.225-.981-5.051-12.689-8.144-23.175-11.722-35.658-.207-.723-1.161-.876-1.585-.255l-66.746 98.023c-.164.241-.411.377-.703.387l-51.868 1.733c-.47.016-.844.395-.856.865-1.043 42.993-36.172 77.614-79.589 77.614-43.727 0-79.49-35.589-79.49-79.49.002-43.903 35.591-79.491 79.492-79.491zm28.34 31.585c-8.301-4.921-17.989-7.75-28.34-7.75-30.737 0-55.654 24.917-55.654 55.654s25.225 55.654 55.654 55.654c30.072 0 54.207-23.459 55.706-52.854.027-.521-.394-.949-.916-.931l-49.324 1.648c-5.13.172-8.236-5.577-5.281-9.774l28.427-40.374c.3-.425.175-1.007-.272-1.273zm196.325 9.49c-.303-.552-1.071-.62-1.466-.13-7.713 9.551-12.334 21.703-12.334 34.936 0 30.737 24.917 55.654 55.654 55.654s55.654-24.917 55.654-55.654-24.917-55.654-55.654-55.654c-10.852 0-20.977 3.107-29.537 8.479-.383.24-.523.724-.329 1.132 5.221 10.947 13.601 25.471 23.33 28.916l7.329 2.533c5.756 1.898 7.354 9.212 3.055 13.37-3.213 3.108-6.548 2.265-10.279 1.583-15.848-2.894-27.867-21.386-35.423-35.165zm-202.649 25.375c-.438.596.002 1.433.74 1.411l88.231-2.628c.662-.02 1.069-.726.753-1.309l-36.644-67.549c-.31-.571-1.109-.625-1.493-.102zm171.829-111.466c-.008-.513-.44-.908-.951-.87l-115.561 8.449c-.647.047-1.025.745-.711 1.312l51.364 92.982c.322.582 1.142.617 1.512.064l64.277-96.11c.321-.477.084-4.952.07-5.827z" fill-rule="evenodd"/></svg>