<svg id="Glyph" height="512" viewBox="0 0 64 64" width="512" xmlns="http://www.w3.org/2000/svg"><g fill="rgb(0,0,0)"><path d="m7 41.72h1.07v-19.44h-1.07a3.00234 3.00234 0 0 0 -3 3v13.44a3.00234 3.00234 0 0 0 3 3z"/><path d="m57 22.28h-1.07v19.44h1.07a3.00234 3.00234 0 0 0 3-3v-13.44a3.00234 3.00234 0 0 0 -3-3z"/><path d="m13.07 47.43h5.05a3.00879 3.00879 0 0 0 3-3v-8.6h21.76v8.6a3.00879 3.00879 0 0 0 3 3h5.05a3.00878 3.00878 0 0 0 3-3v-24.86a3.00878 3.00878 0 0 0 -3-3h-5.05a3.00879 3.00879 0 0 0 -3 3v8.6h-21.76v-8.6a3.00879 3.00879 0 0 0 -3-3h-5.05a3.00878 3.00878 0 0 0 -3 3v24.86a3.00878 3.00878 0 0 0 3 3z"/></g></svg>