<svg id="Layer_1" enable-background="new 0 0 500 500" viewBox="0 0 500 500" xmlns="http://www.w3.org/2000/svg"><path clip-rule="evenodd" d="m431.649 404.266c0-22.126-12.264-41.386-30.365-51.355-.378-.208-.55-.647-.414-1.056l24.788-74.363c.45-1.349.53-2.731.065-4.196l-50.392-158.477c-.214-.672.589-1.33.48-3.856-.146-3.383-1.389-6.071-8.085-7.625-16.208-3.76-59.21-4.941-82.695-3.942-.569.025-5.68 2.434-13.463 2.434-9.346 0-17.898-3.408-24.483-9.047-.191-.164-.417-.234-.668-.209-1.662.172-3.375.365-5.139.575-5.791.691-12.573 4.359-16.603 7.126-.722.495-.36 1.631.516 1.617 2.503-.041 6.42.125 9.177 1.03 25.735 8.441 13.847 27.923 18.699 39.075.335.77 1.907 1.47 2.745 1.668 2.365.564 16.092 1.86 20.596 2.355.394.043.756-.169.912-.534 3.398-7.982 5.132-11.848 7.322-19.858.098-.359.391-.608.762-.648 11.192-1.181 25.755-3.21 38.918-3.628 15.273-.486 29.064.529 38.323-.41.422-.043.806.209.934.613l48.783 153.416c.059.186.058.363-.004.549l-23.791 71.372c-.147.441-.608.693-1.059.579-3.245-.823-6.597-1.377-10.032-1.633-.548-.041-.924-.557-.796-1.091l14.012-58.154c.451-1.901.06-3.983-1.246-5.635l-85.436-108.194c-.186-.236-.24-.523-.151-.81 1.09-3.541-.93-7.291-4.094-9.022-10.674-5.841-32.999-5.757-45.807-8.146l-.461-.11c-5.063-1.477-9.394-4.257-11.56-9.235-3.435-7.895.095-16.413.045-24.549-.031-4.95-3.223-8.511-7.839-10.023-4.297-1.407-8.629 3.763-10.454 6.949-6.99 12.203-5.289 30.644-1.177 43.448 1.235 3.846 3.899 12.603 7.773 14.72 1.911 1.045 4.779 1.141 6.903 1.163 4.787.051 9.65-.273 14.453-.328 12.808-.147 25.506.417 38.396-.142.862-.037.807.773 1.672 1.868l85.087 107.753c.174.221.232.483.166.757l-14.212 58.983c-.083.346-.346.596-.696.663-15.759 2.993-29.283 12.297-37.843 25.183-.257.387-.767.51-1.172.282l-80.471-45.244c-.435-.245-.582-.791-.33-1.221.909-1.549 1.637-3.325 2.305-4.897 2.972-6.999 12.118-44.45 12.508-53.663 1.331-31.496 7.453-18.241-12.566-44.607-2.398-3.158-5.056-6.659-7.972-10.5-.246-.325-.244-.76.007-1.081 5.591-7.162 10.721-14.108 15.394-20.838l-.137.002c-36.568 1.835-41.525-19.103-42.105-46.785-.07-3.365-.076-6.83-.066-10.366.003-.946-1.29-1.235-1.69-.377l-15.743 33.748c-10.97 23.516-21.895 33.924-7.155 59.368 6.685 11.541 25.796 22.454 41.458 32.823.224.149.359.366.391.633 1.542 12.864-5.369 35.713-.296 57.059.179.752-.623 1.356-1.296.977l-18.008-10.125c-4.504-2.571-9.864.697-9.956 5.596l-.639 32.903c-.007.331.156.619.443.785l15.159 8.752c11.197 6.465 24.08 6.34 35.15-.341l7.336-4.428c.284-.171.614-.174.901-.009l57.308 33.087c.83.479.404 1.761-.548 1.647l-160.975-19.152c-1.587-.189-.241-2.3.241-3.423 15.259-35.567 32.075-70.169 42.698-106.634.098-.335.001-.675-.26-.908-6.938-6.215-10.591-10.943-13.456-14.939-4.598-6.411-7.034-10.674-11.256-22.212-.28-.767-1.361-.779-1.658-.019-9.091 23.257-20.508 69.742-31.704 128.824-.995 5.249-2.266 11.274-.442 16.123.235.624-.272 1.271-.934 1.192l-17.53-2.086c-4.453-.529-9.111 3.69-6.75 9.511l12.066 29.713c.125.307.387.507.716.547l17.382 2.068c12.839 1.528 24.629-3.666 32.169-14.169l4.773-6.648c.193-.269.496-.403.825-.363l135.542 16.127c.473.056.817.476.779.951-.685 8.604.508 17.088 3.407 24.957.215.582-.215 1.196-.836 1.193l-224.573-1.068c-.259-.001-.482.097-.657.287l-23.402 25.502c-.522.569-.119 1.486.653 1.486h269.435c1.374 0 12.92 10.938 34.379 10.938 32.362-.003 58.596-26.237 58.596-58.598zm-160.08-313.075c14.926 0 27.026-12.1 27.026-27.026s-12.1-27.026-27.026-27.026-27.026 12.1-27.026 27.026 12.1 27.026 27.026 27.026zm101.485 284.036c16.038 0 29.039 13.001 29.039 29.039s-13.001 29.039-29.039 29.039-29.038-13.001-29.038-29.039c-.001-16.038 13-29.039 29.038-29.039z" fill-rule="evenodd"/></svg>