<svg id="b33c1346-ce7e-4892-bb8e-79288c76b780" viewBox="0 0 64 64" xmlns="http://www.w3.org/2000/svg" data-name="glyph"><path d="m56.54605 57.99238h-7.04676l3.05156-3.1018a7.21184 7.21184 0 0 0 -1.54585-11.27277l-6.09993-3.53153 1.61752-2.44838c3.56044-5.20506 1.37017-11.16751-1.97474-15.72l2.02278-2.7216a9.6702 9.6702 0 0 0 -2.29251-13.68815l-1.94036-1.32684a1.00417 1.00417 0 0 0 -1.13316 1.65769l1.9404 1.32679a7.61776 7.61776 0 0 1 1.814 10.83262l-1.69668 2.28314a16.266 16.266 0 0 0 -5.12162-3.979l2.67906-3.71626a1.00379 1.00379 0 0 0 -1.62825-1.17438l-7.84174 10.87769a1.004 1.004 0 0 0 1.62828 1.17433l3.96264-5.49677c4.00727 1.76715 6.93314 5.77632 8.70355 10.0429a9.02927 9.02927 0 0 1 -.797 8.5211l-1.68848 2.55572-11.55743-6.68168a20.47365 20.47365 0 0 0 -10.68055-2.79056l-2.26856-3.694c-.0185-.013 2.6107 0 2.608-.00448a1.00391 1.00391 0 0 0 0-2.00761h-7.68a1.00392 1.00392 0 0 0 0 2.00762h2.73178a.19323.19323 0 0 0 .04142.10483l2.32884 3.77433c-11.89986 1.55644-16.01946 15.93-8.26121 24.4227l3.41279 3.77436h-5.13946a1.004 1.004 0 0 0 .00006 2.00761c4.62939-.01533 47.85161 0 47.85161 0a1.00391 1.00391 0 0 0 0-2.00762zm-32.57365-7.59885v1.75667h1.4856a1.00392 1.00392 0 0 1 -.00005 2.00761h-4.97879a1.00381 1.00381 0 0 1 0-2.00762h1.48562v-7.34789a1.00392 1.00392 0 0 1 2.00762 0v3.53333a3.65925 3.65925 0 1 0 -3.97511-1.37522.98824.98824 0 0 1 -.22081 1.39531c-1.71306.99566-2.49421-2.3583-2.4795-3.55338a5.67221 5.67221 0 0 1 5.67161-5.67163c6.91902.15229 7.72682 9.92885 1.00381 11.26282zm22.22437 2.66006h-1.4355a1.00381 1.00381 0 1 1 0-2.00762h1.4355a1.00389 1.00389 0 0 1 0 2.00762zm0-4.216h-1.4355a1.0039 1.0039 0 0 1 0-2.00762h1.43546a1.0039 1.0039 0 0 1 .00004 2.0076z"/></svg>