<svg id="Glyph" height="512" viewBox="0 0 64 64" width="512" xmlns="http://www.w3.org/2000/svg"><g fill="rgb(0,0,0)"><path d="m47.98 25.94 1.49-6.52h-8.02l-.34 1.94c-7.15-3.99-15.58-1.16-18.74.17l-.28-2.11h-7.71l1.63 6.53c-2.31 2.63-13.58 17.04 1.26 32.04a6.94436 6.94436 0 0 0 4.91 2.01h19.64a6.94436 6.94436 0 0 0 4.91-2.01c14.86-15.02 3.54-29.44 1.25-32.05z"/><path d="m13.88 17.42h7.94l-.36-2.66a2.59817 2.59817 0 0 1 .62-2.03 2.53006 2.53006 0 0 1 1.92-.87h15.71a2.56747 2.56747 0 0 1 2.53 3l-.45 2.56h8.14l.06-.25a10.76368 10.76368 0 0 0 -10.49-13.17h-15.18a10.76453 10.76453 0 0 0 -10.45 13.36z"/></g></svg>