<svg id="Glyph" height="512" viewBox="0 0 32 32" width="512" xmlns="http://www.w3.org/2000/svg"><path d="m22 23h-12v-2c0-.552.448-1 1-1h10c.552 0 1 .448 1 1z"/><path d="m29 18c0 .553-.447 1-1 1h-3c-.553 0-1-.447-1-1v-3h-1c-.276 0-.5-.224-.5-.5v-6c0-.276.224-.5.5-.5h1v-3c0-.551-.448-1-1-1h-5.5v4h.029c.835 0 1.534.633 1.617 1.463l.799 7.987c.029.294-.202.55-.497.55h-6.895c-.296 0-.527-.255-.497-.55l.799-7.987c.082-.83.781-1.463 1.616-1.463h.029v-4h-5.5c-.552 0-1 .449-1 1v3h1c.276 0 .5.224.5.5v6c0 .276-.224.5-.5.5h-1v3c0 .553-.447 1-1 1h-3c-.553 0-1-.447-1-1s.447-1 1-1h2v-2h-1c-.276 0-.5-.224-.5-.5v-6c0-.276.224-.5.5-.5h1v-3c0-1.654 1.346-3 3-3h14c1.654 0 3 1.346 3 3v3h1c.276 0 .5.224.5.5v6c0 .276-.224.5-.5.5h-1v2h2c.553 0 1 .447 1 1z"/><path d="m17.5 28h9.5v2h-22v-2h9.5v-3h3z"/></svg>