<svg id="Layer_1" enable-background="new 0 0 500 500" viewBox="0 0 500 500" xmlns="http://www.w3.org/2000/svg"><path clip-rule="evenodd" d="m250 75c15.467 0 28 12.533 28 28s-12.533 28-28 28-28-12.533-28-28 12.533-28 28-28zm-45.2 65.8c8.4 2.1 15.2 8.9 17.3 17.3l12.4 49.6c1.2 4.8 5.5 8.1 10.4 8.1h10.2c4.9 0 9.2-3.3 10.4-8.1l12.4-49.6c2.1-8.4 8.9-15.2 17.3-17.3 8.4-2.1 17.1.8 22.2 7.4l35.6 46.2c2.8 3.6 7.2 5.7 11.8 5.7h15.4c5.5 0 10-4.5 10-10s-4.5-10-10-10h-8.6l-28.4-36.8c-8.5-11-21.9-16.5-35.7-14.6-13.8 1.9-25.4 11.4-30.9 25.2l-8.2 32.8-8.2-32.8c-5.5-13.8-17.1-23.3-30.9-25.2-13.8-1.9-27.2 3.6-35.7 14.6l-28.4 36.8h-8.6c-5.5 0-10 4.5-10 10s4.5 10 10 10h15.4c4.6 0 9-2.1 11.8-5.7l35.6-46.2c5.1-6.6 13.8-9.5 22.2-7.4zm85.5 120.3c-3.2 8.1-11.8 13.1-20.5 11.9l-31.5-4.3c-4.4-.6-8.8 1.2-11.5 4.7l-18.2 23.6c-4.5 5.8-11.4 9.2-18.8 9.2-13.3 0-24-10.7-24-24 0-7.4 3.4-14.3 9.2-18.8l23.6-18.2c3.5-2.7 5.3-7.1 4.7-11.5l-4.3-31.5c-1.2-8.7 3.8-17.3 11.9-20.5 8.1-3.2 17.3-.8 22.2 5.8l42.4 57c4.9 6.6 5.4 15.8 1.2 22.9-4.2 7.1-12.5 10.8-20.4 9.7zm-85.5 18.6c8.1-3.2 17.3-.8 22.2 5.8l42.4 57c4.9 6.6 5.4 15.8 1.2 22.9-4.2 7.1-12.5 10.8-20.4 9.7-3.2-.4-6.2-1.8-8.6-4.1l-42.4-40.6c-2.3-2.2-3.7-5.2-4.1-8.4-.4-3.2.6-6.4 2.8-9.1l18.2-23.6c2.7-3.5 1.2-7.9-3.2-9.6l-31.5-12.2c-8.7-3.4-14.7-11.8-14.3-21.1.4-9.3 7.4-17.1 16.7-18.6 9.3-1.5 18.4 3.4 21.8 11.7l8.2 20.6zm85.5 41.8c-8.1 3.2-17.3.8-22.2-5.8l-42.4-57c-4.9-6.6-5.4-15.8-1.2-22.9 4.2-7.1 12.5-10.8 20.4-9.7 3.2.4 6.2 1.8 8.6 4.1l42.4 40.6c2.3 2.2 3.7 5.2 4.1 8.4.4 3.2-.6 6.4-2.8 9.1l-18.2 23.6c-2.7 3.5-1.2 7.9 3.2 9.6l31.5 12.2c8.7 3.4 14.7 11.8 14.3 21.1-.4 9.3-7.4 17.1-16.7 18.6-9.3 1.5-18.4-3.4-21.8-11.7l-8.2-20.6zm-42.5 85.2c-15.467 0-28-12.533-28-28s12.533-28 28-28 28 12.533 28 28-12.533 28-28 28z" fill-rule="evenodd"/></svg> 