<svg id="Layer_1" enable-background="new 0 0 500 500" viewBox="0 0 500 500" xmlns="http://www.w3.org/2000/svg"><path clip-rule="evenodd" d="m109.66 260.439c9.008 41.518 37.685 52.286 83.07 34.796l.003.002c5.564-2.354 18.692-9.51 21.067-10.809.243-.133.507-.147.763-.04 24.306 10.148 48.699 20.094 72.831 30.65.497.217.682.82.393 1.279l-15.224 24.153c-.21.334-.599.485-.979.38l-174.77-47.906c-.404-.111-.818.069-1.013.439l-56.599 107.117c-.312.589.114 1.294.78 1.294h101.731c.486 0 .882-.396.882-.882v-12.024c0-5.816-4.744-10.56-10.56-10.56h-51.432c-.661 0-1.087-.694-.786-1.283l27.885-54.642c.191-.375.608-.56 1.014-.451l156.849 42.028c1.335.358.166 3.217 6.56 9.611 6.935 6.935 17.48 8.065 25.727 2.756l112.272-72.271c39.466-25.405 34.939-61.664 12.892-83.18-.005-.005-.01-.01-.015-.015-11.557-11.843-27.478-18.695-43.617-16.353-.044.006-.082.009-.126.009l-224.637.01c-.512 0-1.021.138-1.342-.43-2.245-3.983-6.603-13.63-16.104-10.676-12.886 4.007-39.394 7.146-53.74 12.17-.899.315-1.59-.847-.884-1.486 6.086-5.512 9.858-16.851 16.118-30.264.329-.706 1.601-.819 1.666.537.365 7.69-.342 14.44-2.788 18.006-.215.314-.209.711.016 1.018.203.278.561.445.963.325 7.623-2.274 31.304-6.914 38.293-4.997.625.171 1.212-.361 1.102-1-3.64-21.156-3.931-35.133-16.291-39.283-.746-.25-.816-1.278-.11-1.627 8.469-4.185 14.293-12.91 14.293-22.995 0-14.159-11.478-25.637-25.637-25.637s-25.637 11.478-25.637 25.637c0 10.154 5.905 18.929 14.467 23.08.768.372.611 1.512-.229 1.662l-2.218.418c-.02.004-.036.007-.056.012-2.344.603-14.862 6.522-18.537 11.19-13.455 17.093-23.622 51.519-24.823 55.367-.022.073-.034.137-.039.214-.184 3.299.181 7.061 2.409 9.644 4.286 4.969 14.358 4.162 20.088 3.34 19.201-2.756 36.387-4.943 53.238-14.731l2.986-1.734c2.174-1.263.727 6.268 10.742 8.318 2.055.42 9.153-2.875 10.14-2.875h198.001c.79 0 1.182.957.619 1.511-4.025 3.963-7.889 8.771-11.508 14.513l-23.351 37.046c-.212.336-.604.486-.986.378-12.764-3.606-19.705 5.775-31.95 15.184-.296.228-.683.247-1.001.051l-57.442-35.405c-10.577-6.519-7.428-6.527-18.85-6.527-2.957 0-5.977.016-9.031.123-.024.001-.044.001-.067 0l-42.253-1.74c-.261-.011-.482-.121-.648-.324-4.021-4.937-6.83-10.963-8.937-17.557-.157-.49-.689-.741-1.167-.551-8.704 3.467-12.274-4.346-12.977-4.65-.264-.114-.542-.098-.791.046-12.086 6.978-20.584 9.512-33.794 13.252-.547.155-.806.772-.534 1.271 8.281 15.195 13.603 25.99 13.62 26.068zm304.414 117.45c.162.28.44.44.763.44h35.506c5.816 0 10.56 4.744 10.56 10.56v12.024c0 .486-.396.882-.882.882h-123.388c-.486 0-.882-.396-.882-.882v-12.024c0-5.816 4.744-10.56 10.56-10.56h39.389c.682 0 1.106-.736.763-1.326l-17.053-29.333c-.237-.408-.112-.93.285-1.185l18.268-11.759c.425-.274.987-.138 1.241.299zm-66.05-218.813c-.339-.592-1.188-.593-1.529-.002l-9.843 17.049c-1.822 3.146-5.851 4.22-8.997 2.398s-4.22-5.851-2.398-8.997l36.278-62.835c1.822-3.146 5.851-4.22 8.997-2.398s4.22 5.851 2.398 8.997l-12.004 20.792c-.162.28-.162.601 0 .882l31.497 54.596c.359.622-.14 1.392-.855 1.318-8.171-.841-15.915.064-23.132 2.365-.4.128-.824-.037-1.033-.401zm57.207 117.452c-10.456 10.456-27.409 10.456-37.865 0s-10.456-27.409 0-37.865 27.409-10.456 37.865 0 10.456 27.409 0 37.865z" fill-rule="evenodd"/></svg>