<svg id="Layer_1" enable-background="new 0 0 500 500" viewBox="0 0 500 500" xmlns="http://www.w3.org/2000/svg"><path clip-rule="evenodd" d="m39.259 440.927h46.385c.59 0 1.019-.548.878-1.121l-9.573-38.846c-.577-2.342-.059-4.467 1.532-6.266 28.866-32.628 50.182-60.108 95.117-77.586l-.003-.009c1.131-.436 2.159-1.181 2.945-2.217 14.01-18.459 30.354-36.191 47.573-51.621 2.275-2.039.732-1.833 1.933-3.171.419-.467 1.169-.379 1.468.173 6.49 11.969 16.564 23.867 27.04 34.86.368.387.324 1.005-.096 1.335-9.767 7.669-15.331 12.314-26.345 19.065-12.352 7.571-25.13 14.052-38.027 18.614-26.623 9.418-57.345 39.017-82.176 58.758-5.57 4.429-8.631 10.655-8.752 17.787l-.342 20.069c-.055 3.26-3.435 6.548-6.951 8.478-.818.449-.498 1.697.435 1.697h368.442c8.448 0 8.448 13.567 0 13.567h-421.483c-8.448.002-8.448-13.566 0-13.566zm267.459-340.851c14.796 4.215 30.142-4.314 34.368-19.125 4.218-14.785-4.312-30.142-19.124-34.368-14.787-4.219-30.151 4.32-34.368 19.124-4.216 14.8 4.323 30.152 19.124 34.369zm-72.681 124.358c-8.182 24.656 24.592 56.731 48.613 80.239 4.819 4.716 14.128 13.831 16.641 16.921 1.256 1.545 1.022 3.817-.523 5.073-17.778 14.485-33.077 32.898-49.284 51.217-2.284 2.582-3.063 5.758-2.237 9.11l10.084 40.921c1.163 4.726 17.843-2.455 18.002-11.834l.342-20.069c.105-6.177 2.736-11.524 7.565-15.363 2.229-1.772 5.665-4.33 9.752-7.371 18.68-13.903 51.65-38.443 51.409-49.226-.205-9.216-25.253-40.321-39.176-57.687-5.299-6.61-6.963-14.829-4.644-22.972l12.244-42.978.011.003c.763-2.695 4.241-3.548 6.151-1.416l26.355 29.372c6.645 7.379 20.535 2.641 27.38-3.516 7.816-7.027 13.788-12.182 18.73-16.449 11.341-9.79 17.102-14.763 32.445-31.752 18.921-20.952-4.132-25.065-15.689-20.415-5.663 2.278-10.039 6.901-9.548 13.95h-.005c.072 1.089-.349 2.198-1.239 2.967l-25.198 21.775c-4.215 3.642-10.831 2.875-14.266-1.456-4.206-5.305-20.232-47.635-38.33-70.161-3.101-3.86-10.219-8.188-19.212-12.223-22.68-10.176-57.287-18.49-69.473-12.731-7.136 3.366-14.2 7.868-18.731 10.769l-24.682 15.809c-17.441 11.171-18.513 31.238-13.843 50.149l8.703 35.243c.902 3.65 6.519 4.27 9.939 3.175 3.095-.992 5.263-1.658 6.918-5.011 1.017-2.06.469-4.879.205-7.686l-3.722-39.541c-.503-5.341.205-11.523 6.107-13.682l36.85-13.482c2.086-.773 4.041.026 4.826 1.897 8.063 19.22 18.056 30.511 11.202 54.103-5.074 17.455-15.988 20.214-20.672 34.328z" fill-rule="evenodd"/></svg>