<svg height="512" viewBox="0 0 32 32" width="512" xmlns="http://www.w3.org/2000/svg"><g id="Layer_2" data-name="Layer 2"><path d="m30.46 25.81a.5.5 0 0 0 -.46-.31h-3v-1.5a.5.5 0 0 0 -.5-.5h-1a.5.5 0 0 0 -.5.5v1.5h-2.59a1.64 1.64 0 0 0 .09-.5 1.49 1.49 0 0 0 -.39-1 1.49 1.49 0 0 0 -1.11-2.5h-4.5v-5.5a.5.5 0 0 0 -1 0v5.5h-4.5a1.49 1.49 0 0 0 -1.11 2.5 1.49 1.49 0 0 0 -.39 1 1.64 1.64 0 0 0 .09.5h-2.59v-1.5a.5.5 0 0 0 -.5-.5v-17.5a.5.5 0 0 0 -1 0v17.5a.5.5 0 0 0 -.5.5v1.5h-3a.5.5 0 0 0 -.46.31.47.47 0 0 0 .11.54l3 3a.47.47 0 0 0 .35.15h22a.47.47 0 0 0 .35-.15l3-3a.47.47 0 0 0 .11-.54zm-19.46-3.31h10a.5.5 0 0 1 0 1h-10a.5.5 0 0 1 0-1zm0 2h10a.5.5 0 0 1 0 1h-10a.5.5 0 0 1 0-1z"/></g></svg>