<svg id="Layer_1" enable-background="new 0 0 500 500" viewBox="0 0 500 500" xmlns="http://www.w3.org/2000/svg"><path clip-rule="evenodd" d="m325.401 133.35c-2.395 7.962-10.814 12.87-19.346 11.141-.228-.046-.438-.012-.64.104l-198.647 114.63c-.293.169-.461.461-.459.8l.599 132.773c.002.505.414.914.919.914h52.576c.506 0 .919-.413.919-.919v-33.052c0-.506.413-.919.919-.919h66.206c.506 0 .919-.413.919-.919v-35.965c0-.506.413-.919.919-.919h66.576c.506 0 .919-.413.919-.919v-37.771c0-.506.413-.919.919-.919h60.104c.511 0 .92-.41.919-.921l-.421-165.401c-.002-.708-.764-1.147-1.378-.793l-32.1 18.523c-.212.124-.352.3-.422.532zm-73.921-105.477c13.58 0 24.59 11.009 24.59 24.589 0 13.581-11.009 24.59-24.59 24.59-13.58 0-24.59-11.009-24.59-24.59 0-13.58 11.01-24.589 24.59-24.589zm42.523 106.695c.168.425.002.902-.394 1.13l-59.044 34.037c-.729.42-.945-.095-.833-.927l2.322-17.245c-9.358-7.37-14.622-18.151-11.29-30.046.582-2.077.152 8.151 8.771 17.448 6.162 6.647 13.469 5.564 25.735 2.061 2.426-.693 34.08-8.109 34.733-6.458zm-82.161 220.283-15.921.232-28.021-6.417c-10.118-2.317 4.716-19.293 5.15-22.183 5.003-33.38-8.375-41.278 1.433-63.003-1.407-.325-5.595-25.536-5.823-28.865-.019-.272.205-.479.442-.616l69.864-40.316c.382-.22.854-.144 1.146.186.853.963 46.788 15.645 46.334 17.248 1.536 11.17-.279 21.795-3.585 31.392-6.866 19.933-20.167 35.438-23.255 42.217-.137.3-.209.599-.069.898 7.227 15.5 31.092 15.044 20.04 30.118-.206.282-.529.417-.875.366-29.063-4.222-37.642-11.493-39.634-16.955-1.487-4.078-.459-3.985 4.697-17.939 5.32-9.877 6.368-19.491 7.52-27.997 1.146-8.464 2.394-15.833 8.054-21.276-13.655-.317-43.992-7.298-50.772-11.662-.62-.399-1.432.056-1.415.793.003.144-6.199 47.279-7.747 54.18-5.5 24.521-8.861 47.473-9.398 49.51-.085.324.328.561.236.883-2.331 8.151 5.3 12.923 9.161 16.015 4.466 3.576 12.696 3.128 12.437 12.909zm122.653 25.582 38.611 66.876c.169.292.458.459.795.459h22.494c6.056 0 10.995 4.939 10.995 10.995v9.635c0 .506-.413.919-.919.919h-95.131c-.506 0-.919-.413-.919-.919v-9.635c0-6.056 4.939-10.995 10.995-10.995h25.482c.709 0 1.15-.764.795-1.378l-31.807-55.091c-.256-.444-.816-.592-1.259-.334l-132.122 77.085c-11.981 6.99-25.959 5.237-32.162-7.17-6.203-12.407-.404-23.474 11.522-30.559l194.584-115.599c12.05-7.159 24.831-4.371 31.705 4.557 6.931 9.002 7.831 24.219-10.123 34.694l-43.203 25.206c-.436.255-.585.817-.333 1.254zm-11.349-261.761 39.608-22.832c4.526-2.578 10.2.749 10.194 5.959h.006l.481 188.823.031 5.454c.003.531-.435.95-.965.923-7.785-.395-15.841 1.612-23.072 5.908l-194.584 115.599c-17.659 10.491-26.482 29.147-16.795 48.521.373.747.817 1.253.464 1.843-.171.285-.456.447-.788.447h-43.555c-.506 0-.919-.413-.919-.919v-74.678l-.642-138.211c-.007-2.854 1.525-4.818 3.776-6.121l63.82-36.68c.312-.179.482-.5.458-.858-.545-8.037-1.226-17.622 1.712-25.121 1.305-3.33 4.623-13.739 9.542-21.421l44.8 14.385c.255.082.506.055.738-.079l9.434-5.447c.221-.128.874-.565.061-.822l-53.001-16.76c3.453-15.831 5.742-28.936 6.388-40.123.18-3.256 2.431-13.973 3.048-16.444 5.852-23.428 26.733-31.672 41.375-25.466 3.571 1.514 7.263 3.006 10.304 5.537 14.615 12.165 13.361 15.82 17.874 34.244.069.281-.028.553.143.787 3.348 4.59 45.662 1.189 54.434.171 7.704-.895 10.043-2.089 14.473 3.178.287.341.769.426 1.157.203z" fill-rule="evenodd"/></svg>