<svg id="Layer_1" enable-background="new 0 0 500 500" viewBox="0 0 500 500" xmlns="http://www.w3.org/2000/svg"><path clip-rule="evenodd" d="m272.022 299.301c21.611 0 39.129 17.519 39.129 39.13s-17.519 39.13-39.129 39.13c-21.611 0-39.13-17.519-39.13-39.13s17.519-39.13 39.13-39.13zm-85.115 148.718c2.842 2.635 6.662 4.231 10.856 4.231l134.504-.015.032-.141c.046-.202.022-.39-.07-.575-1.87-3.724-3.057-11.568-5.173-13.919-2.065-2.295-4.781-4.205-9.043-5.824-9.399-3.57-19.894-2.225-30.449-.872l-9.281 1.074c-.034.004-.064.006-.099.006h-53.307c-8.508 0-15.129-7.25-14.358-15.737l3.213-34.984c.004-.04.009-.074.018-.113 2.44-10.684 3.827-22.15 4.477-33.206.178-3.025.3-6.375.247-9.772-.003-.189-.058-.35-.171-.501l-3.706-4.965c-15.283-20.479-30.086 7.896-33.931 29.373-1.102 6.159-1.278 12.461-1.315 18.714l-.275 46.834c-.04 6.698 3.631 16.498 7.831 20.392zm7.62-191.154c4.587 4.323 9.332 8.793 13.114 15.135 5.671 9.51 8.92 28.079 9.296 39.926.011.36-.188.674-.519.817s-.696.073-.951-.182c-2.37-2.376-5.466-3.888-9.488-4.125-22.757-1.338-35.426 33.788-38.085 51.753-.836 5.647-1.264 11.395-1.404 17.197-.01.396-.276.725-.662.816s-.771-.083-.958-.433l-59.363-111.463c-5.971-11.212-5.968-23.362-.007-34.597l22.92-43.203c.209-.394.679-.563 1.091-.391l43.739 18.225c.359.149.568.505.524.892-.562 4.926-.442 9.898.375 14.771 3.12 18.6 11.502 26.497 20.378 34.862zm83.884-143.132c9.752-8.55 12.676-13.909 18.696-23.341.201-.315.564-.461.927-.374.364.088.62.384.655.757 1.456 16.059 21.161 73.77 45.446 88.087.11.065.193.14.267.244.981 1.393 1.019 3.189.216 4.595-.003.006-.006.01-.009.016-2.1 3.872-8.622 13.632-7.589 15.168 5.96 8.863 12.653 14.835 20.534 21.573 3.561 3.045 6.145 6.354 8.249 10.563l6.154 12.308c.047.094.101.168.178.24 4.716 4.463 17.51 6.455 21.255 7.251 1.658.352 3.275.376 4.857.114.292-.048.521-.224.643-.493s.104-.557-.052-.808c-1.33-2.148-3.697-5.939-4.111-7.127-.004-.013-.009-.024-.014-.037l-71.673-179.151c-.007-.016-.012-.031-.017-.047l-.055-.164c-.003-.01-.006-.019-.009-.03-1.633-5.547-4.424-9.407-8.207-11.815-3.86-2.458-8.897-3.554-14.919-3.51-.031 0-.057.002-.088.005-8.722.962-17.266 2.427-25.622 4.413-51.445 12.227-84.972 41.488-116.293 82.763-9.49 12.506-17.982 25.724-25.257 39.481-.117.222-.134.457-.049.693s.247.407.479.503l50.561 21.067c2.455 1.018 9.665.285 12.288-1.049 19.402-9.866 31.652-24.88 34.907-46.9.194-1.326.974-2.421 2.039-3.062.018-.011.033-.02.05-.032l45.489-31.842c.027-.02.049-.037.074-.059z" fill-rule="evenodd"/></svg>