<svg id="Layer_1" enable-background="new 0 0 500 500" viewBox="0 0 500 500" xmlns="http://www.w3.org/2000/svg"><path clip-rule="evenodd" d="m59.296 352.459c-42.874-35.609-18.536-114.799 34.522-139.123 31.973-14.658 57.318-3.801 82.056-12.029 17.007-5.656 31.381-29.675 44.136-42.117 22.523-21.971 47.713-45.817 79.718-52.005 34.169-6.606 63.777 9.178 87.921 32.173 40.353 38.431 84.414 97.216 73.274 149.893-6.432 30.414-15.721 47.82-37.682 63.159-.574.401-1.361.014-1.393-.686l-1.66-36.017c-.01-.223.053-.418.192-.593 6.158-7.735 10.959-15.963 14.056-29.199 10.443-44.64-31.31-95.164-65.093-127.337-83.891-79.896-123.271 47.353-185.092 67.915-30.531 10.154-53.734-.784-79.371 10.97-20.127 9.227-48.16 53.17-42.255 72.515l-1.875 41.836c-.034.739-.895 1.111-1.454.645zm283.702-31.375-11.337 43.489c-.171.655.429 1.253 1.084 1.081 15.633-4.127 29.917-11.968 29.917-24.061 0-9.103-7.925-16.156-18.43-21.087-.504-.238-1.093.039-1.234.578zm-25.952 46.914 13.437-51.544c.123-.471-.16-.955-.63-1.08-3.634-.965-7.299-1.723-10.835-2.272-.452-.07-.879.21-.994.652l-14.142 54.294c-.144.553.259 1.092.831 1.109 3.413.102 7.363-.06 11.569-.502.373-.039.669-.293.764-.657zm-25.945-3.566 13.346-51.239c.151-.581-.301-1.138-.901-1.109-2.765.135-5.128.491-6.917 1.073-27.073 8.8-28.285 38.932-6.842 51.811.51.307 1.164.04 1.314-.536zm-99.39-47.951-13.438 51.549c-.151.579.297 1.135.896 1.109 3.574-.153 6.503-.612 8.43-1.363 25.009-9.739 27.855-39.68 5.392-51.852-.508-.275-1.135-.002-1.28.557zm-27.057 51.149 14.206-54.493c.146-.558-.265-1.099-.841-1.11-3.454-.064-7.434.184-11.655.741-.365.048-.649.299-.742.655l-13.482 51.76c-.126.484.166.97.653 1.086 3.646.867 7.328 1.537 10.886 2.015.446.061.861-.218.975-.654zm-25.129-6.698 11.328-43.491c.174-.669-.455-1.273-1.116-1.071-15.393 4.697-29.3 13.16-29.3 25.221 0 8.848 7.647 15.421 17.873 19.928.502.222 1.077-.056 1.215-.587zm24.162-71.107c-37.123 9.921-53.382 17.413-87.584 29.63-.346.123-.571.427-.588.794l-1.934 41.984c-.02.424.254.794.665.899 34.035 8.747 58.055 24.159 89.442 30.148 31.566 6.023 58.936-14.812 66.539-38.701.119-.374.452-.618.844-.618h20.463c.392 0 .725.244.844.618 7.602 23.889 34.972 44.724 66.538 38.701 31.386-5.989 55.407-21.402 89.442-30.148.411-.105.684-.475.665-.899l-1.934-41.984c-.017-.367-.242-.671-.588-.794-34.203-12.218-50.462-19.71-87.584-29.63-29.126-7.784-57.897 12.29-66.342 38.039-.121.37-.453.61-.842.61h-20.86c-.39 0-.721-.24-.842-.61-8.447-25.75-37.218-45.823-66.344-38.039z" fill-rule="evenodd"/></svg>