<svg id="Layer_1" viewBox="0 0 128 128" xmlns="http://www.w3.org/2000/svg" data-name="Layer 1"><path d="m95.49 88.53a8.76 8.76 0 0 0 -6.84-2.15l-78.86 9.35a8.76 8.76 0 0 0 1 17.45h78.89a8.76 8.76 0 0 0 8.75-8.76v-9.35a8.76 8.76 0 0 0 -2.94-6.54zm-22.99 15.47a3 3 0 1 1 3-3 3 3 0 0 1 -3 3zm9 0a3 3 0 1 1 3-3 3 3 0 0 1 -3 3z"/><path d="m125.84 20.15a6.39 6.39 0 0 0 -6.29-5.33 6.4 6.4 0 0 0 -5.2 2.68l-4.63 6.5-20.79 3a6.38 6.38 0 0 0 .9 12.69 6.73 6.73 0 0 0 .91-.06l5.75-.83-8.11 39-64.57 8.54a2 2 0 0 0 .26 4h.26l63.19-8.38-.77 3.68 1.78-.21a8.72 8.72 0 0 1 1.14-.07 9.8 9.8 0 0 1 6.49 2.46 9.7 9.7 0 0 1 2.42 3.3 5.39 5.39 0 0 0 .23-.81l11.12-53.42 4.3-.62a6.39 6.39 0 0 0 4.29-2.6l6.22-8.72a6.35 6.35 0 0 0 1.1-4.8z"/></svg>