<svg id="Layer_1" viewBox="0 0 64 64" xmlns="http://www.w3.org/2000/svg" data-name="Layer 1"><path d="m9.37 46.08c-.82 0-1.49.67-1.49 1.49v3.42c0 6.07 4.94 11.01 11.02 11.01s11.01-4.94 11.01-11.01v-3.42c0-.82-.67-1.49-1.49-1.49h-.44v-1.87h.13c.65 0 1.26-.36 1.57-.94.32-.57.3-1.28-.06-1.84l-7.95-12.24v-26.19c0-.55-.45-1-1-1h-3.54c-.55 0-1 .45-1 1v26.19l-7.95 12.24c-.36.55-.4 1.25-.08 1.84.31.58.92.94 1.58.94h.13v1.87zm8.3-15.6h2.45l7.62 11.73h-17.68zm8.31 13.73v1.86h-14.17v-1.86zm-16.1 3.87h18.03v2.91c0 4.97-4.04 9.01-9.01 9.01s-9.02-4.04-9.02-9.01z"/><path d="m35.58 46.08c-.82 0-1.49.67-1.49 1.49v3.42c0 6.07 4.94 11.01 11.02 11.01s11.01-4.94 11.01-11.01v-3.42c0-.82-.67-1.49-1.49-1.49h-.44v-1.87h.13c.65 0 1.26-.36 1.57-.93.32-.58.3-1.29-.06-1.85l-7.95-12.24v-26.19c0-.55-.45-1-1-1h-3.54c-.55 0-1 .45-1 1v26.19l-7.95 12.24c-.37.55-.4 1.25-.08 1.84.31.58.92.94 1.58.94h.13v1.87zm8.3-15.6h2.45l7.62 11.73h-17.69zm8.31 13.73v1.86h-14.17v-1.86zm-16.1 3.87h18.03v2.91c0 4.97-4.04 9.01-9.01 9.01s-9.02-4.04-9.02-9.01z"/></svg>