<svg version="1.2" xmlns="http://www.w3.org/2000/svg" viewBox="525.1600000000005 485.93928994082836 971.109999999999 155.83071005917185" width="972" height="157">
	<style>
		.s0 { fill: #ffffff } 
		.s1 { fill: #5781e1 } 
	</style>
	<g id="Icon">
		<path id="FITNESS" class="s0" d="m1201.73 628.3l-0.07 12.87h-7.74l0.08-32.47h26.23l-0.07 5.73h-18.39l0.03 8.14h15.28l0.03 5.73zm38.7-19.6h7.84l-0.18 32.47h-7.84zm59.3 0l-0.07 5.73h-11.96l-0.09 26.83h-7.94l0.19-26.83h-12.06l0.07-5.73zm44.33 0h7.53l-0.16 32.56h-6.83l-17.84-22.41-0.05 22.41h-7.54l0.06-32.56h8.04l16.69 21.3zm29.48 32.57l0.17-32.57h26.44l-0.07 5.83h-18.69v7.14h15.68l-0.05 5.83h-15.68l0.01 8.04h18.7l-0.08 5.73zm43.68-5.93l5.36-4.42q2.13 2.51 5.01 3.82 3 1.4 6.11 1.4 3.02 0 4.9-1 2.07-1.11 2-3.22 0.01-1.51-1.09-2.21-1.2-0.8-3.28-1.31-2.06-0.4-4.94-0.9-2.18-0.5-4.25-1.01-2.09-0.6-3.81-1.6-1.74-1.01-2.85-2.52-1-1.6-0.91-4.02 0-3.11 1.83-5.32 1.92-2.32 5.18-3.52 3.26-1.31 7.18-1.31 5.02 0 8.75 1.71 3.73 1.61 5.66 4.12l-5.18 4.32q-1.57-2.01-3.93-3.21-2.28-1.31-5.5-1.31-2.81 0-4.57 1.11-1.69 1-1.76 2.81 0.06 1.21 0.95 1.91 0.9 0.7 2.56 1.11 1.75 0.4 4.23 0.9 2.37 0.4 4.65 1.01 2.39 0.6 4.43 1.6 2.02 0.91 3.25 2.62 1.22 1.71 1.25 4.32-0.07 3.32-2.1 5.63-2 2.41-5.47 3.62-3.34 1.3-7.46 1.3-3.22 0-6.44-0.8-3.12-0.81-5.71-2.21-2.61-1.51-4.05-3.42zm47.54 0l5.46-4.42q2.13 2.51 5.01 3.82 2.9 1.4 6.11 1.4 2.92 0 4.9-1 1.97-1.11 2-3.22 0.01-1.51-1.18-2.21-1.11-0.8-3.19-1.31-2.06-0.4-4.93-0.9-2.18-0.5-4.25-1.01-2.1-0.6-3.92-1.6-1.64-1.01-2.75-2.52-1-1.6-1.01-4.02 0-3.11 1.93-5.32 1.93-2.32 5.18-3.52 3.26-1.31 7.18-1.31 4.93 0 8.65 1.71 3.83 1.61 5.76 4.12l-5.18 4.32q-1.67-2.01-3.93-3.21-2.28-1.31-5.49-1.31-2.82 0-4.58 1.11-1.79 1-1.76 2.81-0.04 1.21 0.95 1.91 0.9 0.7 2.56 1.11 1.76 0.4 4.23 0.9 2.37 0.4 4.65 1.01 2.39 0.6 4.43 1.6 2.02 0.91 3.25 2.62 1.22 1.71 1.15 4.32 0.03 3.32-1.99 5.63-2.01 2.41-5.47 3.62-3.45 1.3-7.47 1.3-3.22 0-6.43-0.8-3.13-0.81-5.72-2.21-2.6-1.51-4.15-3.42z"/>
		<path id="FRONTLINE " class="s0" d="m707.49 554.7l-0.18 39.3h-23.7l0.47-99h79.6l-0.07 17.5h-55.9l-0.15 24.7h46.7l-0.07 17.5zm104.82 2.5h-16.3l-0.1 36.8h-24l0.37-99h47.9q20.1 0 31.72 8 11.71 7.9 11.56 23.2 0.04 11.3-7.02 18.7-6.84 7.5-18.97 10.4l28.84 38.7h-27.3zm-16.03-44.9l-0.03 28h22.5q10.5 0 15.74-3.6 5.33-3.7 5.38-10.4 0.04-6.7-5.32-10.3-5.17-3.7-15.67-3.7zm71.01 32.2q0.08-15 7.13-26.4 7.13-11.5 19.7-18 12.56-6.6 28.56-6.6 16.1 0 28.34 6.6 12.53 6.5 19.4 18 7.15 11.4 7.07 26.4-0.1 14.9-7.32 26.5-6.94 11.5-19.49 18.1-12.38 6.5-28.38 6.5-16.1 0-28.52-6.5-12.55-6.6-19.61-18.1-6.88-11.6-6.88-26.5zm86.2 0q0-10.2-4.05-17.6-3.84-7.4-10.75-11.4-6.94-4.2-16.04-4.2-9.1 0-16.26 4.2-6.99 4-11.05 11.4-3.95 7.4-4.05 17.6-0.01 10.1 3.85 17.7 4.05 7.4 10.98 11.6 7.11 4 16.21 4 9.1 0 16.09-4 6.97-4.2 10.92-11.6 4.04-7.6 4.15-17.7zm108.08-49.5h22.8l-0.37 99h-20.8l-54.2-68.2-0.3 68.2h-23l0.37-99h24.4l50.79 65zm126.5 0l-0.06 17.5h-36.5l-0.31 81.5h-24l0.31-81.5h-36.5l0.06-17.5zm83.63 99h-77.6l0.47-99h24l-0.3 81.5h53.5zm6.87-99h24l-0.37 99h-24zm107.3 0h22.9l-0.37 99h-20.8l-54.21-68.3-0.29 68.3h-23l0.37-99h24.4l50.78 64.9zm29.43 99l0.37-99h80.6l-0.07 17.5h-56.9l-0.11 21.9h47.7l-0.06 17.5h-47.7l-0.07 24.6h56.9l-0.06 17.5z"/>
		<path class="s1" d="m571.1 485.94q0.16 0 0.32 0c9.06-0.01 18.17 0.43 35.5 1.88q3.5 0.33 6.98 0.59 1.96 0.15 3.91 0.35-0.04 1.34-0.18 2.66c-0.01 0.2-0.01 0.2-0.04 0.4q-0.05 0.54-0.11 1.08-0.04 0.34-0.06 0.68-0.52 4.88-1.1 9.74c-0.02 0.11-0.02 0.11-0.02 0.22q-0.14 1.18-0.28 2.35-0.02 0.12-0.03 0.24-0.04 0.29-0.08 0.57-0.13 0-0.28 0c-15.34 0.08-15.34 0.08-47.57 0.38q-0.12 0-0.24 0-1.29 0.04-2.57 0.1-0.13 0.01-0.26 0.02c-2.33 0.12-4.13 1.12-5.61 2.72q-0.19 0.19-0.39 0.37c-0.46 0.45-0.77 1-1.08 1.57-0.07 0.13-0.07 0.13-0.15 0.26-0.52 1.02-0.72 2.1-0.83 3.27q-0.02 0.15-0.04 0.31-0.16 1.88-0.23 3.78-0.01 0.19-0.02 0.39-0.3 6.21-0.38 12.46 0 0.35-0.01 0.71c-0.01 1.06-0.02 2.11 0.12 3.18q0.01 0.11 0.03 0.23c0.04 0.38 0.09 0.54 0.36 0.87 0.32 0.05 0.32 0.05 0.7 0.05q0.12 0 0.23 0 0.38 0 0.77 0 0.28 0.01 0.56 0.01 0.79 0 1.59 0.01 0.85 0 1.71 0.01 1.58 0.01 3.17 0.02 2.11 0.01 4.22 0.02 0.3 0.01 0.61 0.01 0.47 0 0.93 0 7.27 0.05 14.53 0.09 0.01 1.21-0.04 2.42-0.01 0.24-0.01 0.48-0.02 0.64-0.04 1.28-0.01 0.4-0.03 0.8-0.03 1.25-0.08 2.5-0.05 1.45-0.09 2.89-0.03 1.12-0.07 2.24-0.02 0.67-0.04 1.34-0.02 0.62-0.04 1.25-0.01 0.23-0.02 0.46-0.01 0.31-0.02 0.63c-0.01 0.17-0.01 0.17-0.01 0.35q-0.04 0.5-0.16 0.98-0.13 0-0.27 0-3.41 0.02-6.82 0.03-1.65 0.01-3.31 0.02-3.37 0.02-6.74 0.04-2.01 0.01-4.03 0.02-1.36 0-2.73 0.01-0.81 0.01-1.62 0.01-0.75 0-1.5 0.01-0.28 0-0.55 0-0.38 0-0.75 0-0.21 0-0.42 0c-0.36 0.04-0.36 0.04-0.57 0.33-0.14 0.29-0.19 0.53-0.22 0.87-0.01 0.17-0.01 0.17-0.03 0.35q-0.02 0.19-0.02 0.38-0.03 0.2-0.04 0.41-0.16 2.23-0.23 4.49-0.02 0.38-0.03 0.77-0.09 2.14-0.16 4.29c-0.01 0.17-0.01 0.17-0.02 0.35q-0.48 13.22-0.9 26.45 0 0.16-0.02 0.31-0.04 1.74-0.1 3.48-0.02 0.63-0.04 1.27-0.01 0.25-0.02 0.49 0 0.12-0.01 0.24-0.02 0.73-0.04 1.46-0.02 0.48-0.03 0.95-0.01 0.22-0.01 0.44-0.01 0.3-0.03 0.6 0.01 0.17 0 0.34c-0.02 0.26-0.02 0.26-0.12 0.37q-0.36 0.01-0.73 0.01c-0.12 0-0.12 0-0.24 0q-0.39 0-0.79 0-0.28 0-0.57 0-0.77 0-1.55 0-0.82 0-1.65 0-1.4 0-2.79 0-1.41 0-2.82 0-8.72 0.02-17.45-0.12 0.05-0.23 0.09-0.46c0.03-0.13 0.03-0.13 0.06-0.26q0.1-0.46 0.24-0.9c0.06-0.18 0.06-0.18 0.12-0.35q0.05-0.18 0.1-0.36 0.12-0.35 0.23-0.7 0.05-0.16 0.1-0.33 0.12-0.35 0.22-0.71 0.11-0.35 0.23-0.71c2.75-8.33 2.16-18.96 2.26-29.07q0.01-0.93 0.05-1.85c0.11-3.05 0.13-6.12 0.14-9.18q-0.01-1.58 0.03-3.15 0.07-3.74 0.04-7.49-0.01-2.16 0.02-4.31 0.03-1.94 0-3.89-0.02-1.74 0-3.48 0.02-2.62-0.01-5.25-0.04-2-0.02-4 0.02-2.54-0.02-5.08-0.01-1.26-0.02-2.52-0.02-3.56-0.09-7.12c-0.1-5.82-0.1-5.82 0.33-7.25q0.03-0.1 0.06-0.21 0.35-1.1 0.81-2.16c0.08-0.18 0.08-0.18 0.16-0.37q0.3-0.77 0.67-1.52c0.19-0.34 0.19-0.34 0.25-0.68q0.11 0 0.22 0 0.01-0.11 0.04-0.23c0.12-0.38 0.32-0.68 0.54-1.01q0.07-0.09 0.13-0.2 0.15-0.2 0.28-0.41 0.19-0.26 0.36-0.53c1.06-1.52 2.29-2.99 3.72-4.17q0.16-0.15 0.31-0.29c1.79-1.57 3.87-2.77 6.04-3.8q0.11-0.05 0.23-0.11c5.27-2.52 11.5-3.27 17.53-3.55q0.13-0.01 0.26-0.02 1.01-0.04 2.02-0.08 0.19 0 0.39-0.01 3.9-0.13 7.82-0.12z"/>
		<path class="s1" d="m626.48 488.44q3.39-0.01 6.78-0.01 1.58 0 3.16 0c12.62-0.02 12.62-0.02 18.67 0.22q-0.19 0.96-0.49 1.88-0.08 0.26-0.17 0.52-0.04 0.13-0.08 0.26-0.39 1.2-0.77 2.39c-0.06 0.17-0.06 0.17-0.11 0.35-0.51 1.62-0.73 3.31-0.92 5.02q-0.02 0.11-0.03 0.23c-0.76 6.56-0.89 13.3-1.06 19.97q0 0.15 0 0.29c-0.22 8.97-0.3 17.96-0.27 47.46q-0.01 0.12-0.01 0.25 0.03 5.33 0.1 10.66 0 0.36 0.01 0.73 0.01 1.5 0.04 2.99 0.02 0.59 0.02 1.17 0 0.26 0.01 0.52c0.03 1.6-0.12 3.04-0.65 4.49q-0.07 0.17-0.13 0.35c-1.4 3.79-3.44 7.32-6.46 9.95q-0.1 0.1-0.22 0.21-1.91 1.74-4.2 3.02c-0.13 0.07-0.13 0.07-0.26 0.14-2.68 1.53-5.62 2.49-8.67 3.25q-0.16 0.04-0.32 0.08c-2.04 0.51-4.05 0.89-6.18 1.09-0.11 0.01-0.11 0.01-0.23 0.02-9.41 0.88-19.17 0.67-50.25-1.32q-3.32-0.34-6.65-0.54-2.36-0.16-4.73-0.47c0.06-1.73 0.25-3.41 0.45-5.11q0.19-1.62 0.35-3.25 0.11-1.32 0.29-2.61 0.14-0.91 0.23-1.83 0.19-1.72 0.4-3.43 0.1-0.8 0.2-1.6 2.2-0.13 4.42-0.13 0.33 0 0.66 0 0.71-0.01 1.42-0.01 1.14 0 2.28-0.01 1.62 0 3.24-0.01 3.99-0.01 7.97-0.03 0.62 0 1.24 0 6.49-0.03 12.97-0.08 0.19 0 0.38 0c8.34-0.03 8.34-0.03 16.64-0.32q0.21-0.01 0.42-0.02c2.44-0.24 4.61-1.98 5.92-3.84 0.2-0.31 0.34-0.55 0.41-0.92q0.11 0 0.22 0 0.03-0.12 0.06-0.24 0.13-0.42 0.28-0.84c0.45-1.39 0.52-2.84 0.61-4.33 0.01-0.16 0.01-0.16 0.02-0.33 0.27-4.32 0.4-8.67 0.47-13.02q0-0.38 0.01-0.77 0.05-2.02-0.01-4.05 0-0.16-0.01-0.32c-0.03-0.71-0.03-0.71-0.35-1.35-0.34-0.16-0.64-0.13-0.99-0.13q-0.12 0-0.24 0-0.42-0.01-0.83-0.01-0.3 0-0.59-0.01-0.84 0-1.67-0.01-0.53-0.01-1.06-0.01-11.84-0.1-23.67-0.16-0.08-1.19-0.05-2.38c0-0.13 0-0.13 0-0.26q0.02-0.43 0.03-0.86 0.01-0.31 0.03-0.61 0.02-0.8 0.05-1.59 0.03-0.8 0.06-1.61 0.03-0.9 0.07-1.81 0.06-1.72 0.11-3.45 0.03-0.93 0.06-1.86 0.04-1.54 0.09-3.08 1.72-0.02 3.44-0.04 0.31-0.01 0.61-0.01 5.02-0.06 10.04-0.08 0.97 0 1.95-0.01 0.65 0 1.3 0 0.16 0 0.33 0 1.97-0.01 3.94-0.02 1.26 0 2.52-0.01 0.74 0 1.48 0 0.68-0.01 1.36-0.01 0.25 0 0.5 0 0.34 0 0.69 0 0.19 0 0.38-0.01c0.34-0.02 0.56-0.08 0.84-0.24 0.22-0.51 0.28-1.04 0.32-1.61q0-0.13 0-0.25 0.03-0.42 0.06-0.83c0.01-0.14 0.01-0.14 0.02-0.29q0.21-3.4 0.32-6.82 0.02-0.53 0.05-1.06 0.36-9.85 0.67-19.71 0.01-0.12 0.01-0.25c0.07-2.33 0.07-2.33 0.15-4.65q0.08-2.8 0.17-5.6 0.04-1.06 0.07-2.12 0.04-1.04 0.07-2.07 0.02-0.4 0.03-0.79 0.02-0.55 0.03-1.09 0.01-0.16 0.02-0.33 0-0.15 0-0.3 0.01-0.13 0.02-0.26c0.01-0.21 0.01-0.21 0.09-0.42z"/>
	</g>
</svg>